<?xml version="1.0" encoding="utf-8"?>
<!-- Generator: Adobe Illustrator 26.5.1, SVG Export Plug-In . SVG Version: 6.00 Build 0)  -->
<svg version="1.1" id="Capa_1" xmlns="http://www.w3.org/2000/svg" xmlns:xlink="http://www.w3.org/1999/xlink" x="0px" y="0px"
	 viewBox="0 0 595.28 841.89" style="enable-background:new 0 0 595.28 841.89;" xml:space="preserve">
<style type="text/css">
	.st0{fill:#ECEFE9;}
	.st1{fill:#B28686;}
	.st2{fill:#1B1B1B;}
	.st3{fill:#F5A31C;}
	.st4{fill:#8BC43F;}
	.st5{fill:#04A2DC;}
	.st6{fill:#CB2030;}
	.st7{fill:#B01F83;}
	.st8{fill:#16926C;}
	.st9{fill:#29B373;}
	.st10{fill:#0274B9;}
	.st11{fill:#6D4293;}
	.st12{fill:#E21A5E;}
	.st13{fill:#8F278D;}
	.st14{fill:#38B249;}
	.st15{fill:#CE1380;}
	.st16{fill:#AE2A25;}
	.st17{fill:#CB2131;}
	.st18{fill:#8EC646;}
	.st19{fill:#F4A41D;}
	.st20{fill:#AE2183;}
	.st21{fill:#B02184;}
	.st22{fill:#E84625;}
	.st23{fill:#00817F;}
	.st24{fill:#005C8C;}
	.st25{fill:none;}
	.st26{font-family:'FelixTitlingMT';}
	.st27{font-size:40px;}
	.st28{font-family:'Sylfaen';}
	.st29{font-size:14px;}
</style>
<path class="st0" d="M484.71,398.96c0.79,1.23,2.09,2.18,1.57,3.93c-0.08,0.26-0.21-0.09-0.34-0.13
	C484.15,402.06,485.14,400.16,484.71,398.96z"/>
<path class="st0" d="M482.82,390.83c0.48,1.95,0.97,3.9,1.45,5.85c-0.04,0.02-0.08,0.03-0.12,0.05c-0.6-1.97-1.2-3.94-1.81-5.91
	C482.5,390.82,482.66,390.83,482.82,390.83z"/>
<polygon class="st0" points="182.28,352.28 182.41,352.52 182.28,352.77 182.12,352.53 "/>
<path class="st1" d="M464.35,830.18c0.04,0.02,0.08,0.04,0.12,0.06c-0.04,0.01-0.08,0.01-0.12,0.02
	C464.35,830.26,464.35,830.18,464.35,830.18z"/>
<path class="st1" d="M377.63,824c0.14-0.18,0.24-0.4,0.31-0.39c0.24,0.03,0.47,0.14,0.7,0.22c-0.09,0.12-0.17,0.33-0.26,0.33
	C378.15,824.16,377.91,824.07,377.63,824z"/>
<path class="st2" d="M466.75,524.35c0.07,0.09,0.14,0.17,0.2,0.25c-0.13,0.08-0.26,0.18-0.4,0.21c-0.05,0.01-0.13-0.14-0.2-0.21
	C466.48,524.52,466.61,524.44,466.75,524.35z"/>
<path class="st3" d="M238.54,423.05c0,16.82,0,33.63,0,50.75c-2.57-1.46-4.91-2.77-7.22-4.12c-4.44-2.59-8.65-5.56-13.22-7.94
	c-0.64-0.33-1.03-0.82-1.03-1.66c0.03-17.25,0.03-34.51,0.04-51.76c0-0.16,0.07-0.31,0.11-0.47c0.64,0.47,0.47,1.16,0.52,1.8
	c0.01,7.58,0,15.16,0.02,22.74c0,0.62-0.35,1.49,0.31,1.79c0.56,0.26,1.21-0.34,1.74-0.7c5.25-3.55,10.79-6.62,16.27-9.79
	c0.69-0.4,1.35-0.95,2.24-0.79C238.39,422.95,238.47,423,238.54,423.05z"/>
<path class="st4" d="M259.98,435.37c-3.05-1.32-5.69-3.33-8.52-5.04c-3.78-2.28-7.63-4.44-11.46-6.63
	c-0.46-0.26-0.97-0.44-1.46-0.65c0,0-0.11-0.03-0.11-0.03c-0.32-0.32-0.39-0.74-0.41-1.16c-0.07-8.09-0.2-16.19,0.06-24.28
	c0.25-0.88,0.82-0.72,1.38-0.38c4.34,2.67,8.94,4.9,13.14,7.81c1.96,1.36,4.11,2.42,6.15,3.67c0.55,0.34,1.17,0.59,1.49,1.22
	c0.12,0.27,0.16,0.55,0.2,0.84c0.12,7.6,0.03,15.19,0.05,22.79C260.49,434.19,260.38,434.82,259.98,435.37z"/>
<path class="st5" d="M302.35,358.34c0.48,0.35,0.36,0.87,0.36,1.34c0.01,7.85,0,15.7,0,23.56c0,0.27-0.08,0.53-0.12,0.8
	c-0.15,0.26-0.1,0.6-0.33,0.82c-0.86,0.77-1.93,1.18-2.92,1.74c-2.38,1.37-4.5,3.11-6.93,4.43c-3.41,1.85-6.85,3.67-10.06,5.86
	c-0.34,0.23-0.66,0.39-1.03,0.07c-0.11-0.15-0.18-0.32-0.23-0.5c-0.26-2.05-0.14-4.11-0.12-6.17c0.06-6.06-0.21-12.12,0.05-18.17
	c0.42-1.74,1.99-2.37,3.27-3.17c4.01-2.48,8.16-4.72,12.2-7.15C298.44,360.63,300.19,359.14,302.35,358.34z"/>
<path class="st6" d="M238.55,397.07c-0.02,7.14-0.04,14.28-0.07,21.42c0,1.19-0.03,2.38-0.05,3.57c-0.7,0.5-1.25-0.02-1.77-0.32
	c-3.37-1.97-6.77-3.89-10.14-5.87c-0.75-0.44-1.49-0.91-2-1.64c-0.43-0.61-1.01-0.85-1.72-1.08c-1.81-0.58-3.4-1.64-4.96-2.72
	c-0.23-0.16-0.31-0.44-0.35-0.71c0.08-0.77,0.7-1.04,1.27-1.35c4.68-2.48,8.96-5.64,13.64-8.14c1.34-0.71,2.61-1.53,3.95-2.25
	c1.16-0.63,1.21-0.96,0.09-1.68c-2.59-1.68-5.28-3.22-8-4.67c-3.5-1.86-6.66-4.27-10.12-6.17c-0.5-0.28-1.03-0.67-0.67-1.42
	c1.75-1.05,3.52-2.06,5.24-3.16c5.11-3.26,10.29-6.37,15.61-9.28c0.07,0.08,0.14,0.16,0.21,0.24c0.38,0.76,0.3,1.59,0.3,2.4
	c0.01,6.78,0.01,13.55,0,20.33C238.99,395.42,239.15,396.32,238.55,397.07z"/>
<path class="st7" d="M238.48,371.6c0-0.11-0.01-0.21-0.03-0.32c-0.83-1.3-0.41-2.74-0.44-4.12c-0.04-1.37-0.04-2.68-1.12-3.75
	c-0.54-0.54-0.58-1.21-0.04-1.9c0.91-1.15,1.17-2.51,1.15-3.96c-0.03-2.97-0.01-5.94-0.01-8.92c0-0.7-0.06-1.41,0.18-2.09
	c0.81-1.17,1.67-0.53,2.52-0.07c4.05,2.18,7.88,4.73,11.8,7.13c1.85,1.13,3.78,2.12,5.63,3.26c0.68,0.42,1.45,0.78,1.64,1.69
	c-0.11,0.7-0.75,0.87-1.22,1.2c-5.02,3.48-10.41,6.35-15.69,9.4c-0.95,0.55-1.67,1.37-2.64,1.87c-0.55,0.29-1.02,0.86-1.76,0.55
	L238.48,371.6z"/>
<path class="st8" d="M302.29,384.59c0.1-0.19,0.2-0.37,0.3-0.56c0.06,4.11,0.15,8.23,0.17,12.34c0.02,4.01-0.06,8.02-0.02,12.03
	c0.01,1.04-0.28,1.64-1.22,2.19c-6.55,3.84-12.92,7.99-19.64,11.55c-1.2-0.3-0.91-1.32-0.92-2.09c-0.06-3.95-0.02-7.9-0.03-11.85
	c0-2.76-0.01-5.52,0-8.28c0-0.76-0.05-1.52,0.21-2.25c0.54-0.87,1.25-0.49,1.83-0.15c4.32,2.48,8.76,4.77,12.85,7.64
	c1.51,1.06,3.2,1.83,4.75,2.82c0.94,0.6,1.3,0.48,1.28-0.71c-0.04-3.47-0.02-6.94-0.02-10.41c0-3.36-0.01-6.72,0-10.09
	C301.87,386.02,301.77,385.24,302.29,384.59z"/>
<path class="st9" d="M281.55,397.31c-0.02,7.94-0.05,15.89-0.07,23.83c0,0.39,0.03,0.76,0.4,0.99c-0.35,0.3-0.7,0.6-1.05,0.9
	c-3.61-2.47-7.52-4.42-11.24-6.69c-3.22-1.96-6.41-3.96-9.57-6c-0.01-0.19-0.01-0.37-0.02-0.56c0.5-0.99,1.5-1.37,2.37-1.87
	c5.29-3.04,10.38-6.43,15.74-9.38c1.08-0.59,2.03-1.43,3.31-1.61c0.05,0.04,0.09,0.08,0.13,0.12l0.09,0.14L281.55,397.31z"/>
<path class="st10" d="M302.35,358.34c-0.38,0.92-1.38,0.96-2.06,1.43c-5.13,3.55-10.68,6.39-16,9.63c-1.01,0.62-2.06,1.29-2.83,2.27
	c-0.38-0.04-0.54-0.3-0.66-0.62c-0.04-0.16-0.11-0.31-0.11-0.47c-0.13-7.74-0.07-15.47-0.03-23.21c0-0.33,0.08-0.64,0.22-0.94
	c0.18-0.34,0.44-0.44,0.8-0.29c4.61,2.42,9.03,5.16,13.42,7.95C297.46,355.59,299.93,356.93,302.35,358.34z"/>
<path class="st11" d="M281.68,346.13c-0.18,0.04-0.37,0.07-0.55,0.11c-1.1,0.98-2.42,1.65-3.69,2.35
	c-5.35,2.95-10.29,6.6-15.74,9.38c-0.78,0.4-1.55,1.04-2.1-0.27c-0.27-1.73-0.13-3.47-0.14-5.2c-0.02-5.75-0.01-11.51-0.01-17.26
	c0-0.7-0.06-1.41,0.2-2.09c1.21-0.32,1.99,0.62,2.76,1.17c3.39,2.43,7.13,4.25,10.66,6.42
	C275.95,342.52,278.81,344.33,281.68,346.13z"/>
<path class="st12" d="M234.41,371.59c-7.34,3.91-14.04,8.51-21.3,12.54c0-8.58,0-16.92,0-25.7
	C219.98,363.3,227.46,366.7,234.41,371.59z"/>
<path class="st13" d="M259.65,333.15c0.55,0.54,0.31,1.23,0.31,1.85c0.04,7.78,0.06,15.56,0.08,23.34c0.03,0.12,0,0.23-0.09,0.32
	c-0.12,0.05-0.22,0.02-0.3-0.09c-2.22-2.03-5.04-3.12-7.55-4.7c-3.95-2.48-7.86-5.02-11.97-7.23c-0.56-0.3-1.05-0.51-1.67-0.41
	c-0.11,0.08-0.21,0.06-0.29-0.05c5.25-3.58,10.76-6.74,16.31-9.82C256.27,335.37,257.66,333.77,259.65,333.15z"/>
<path class="st14" d="M260.02,410.34c2.21,0.61,4.05,1.96,5.89,3.2c3.43,2.32,7.14,4.15,10.62,6.35c1.49,0.94,3.47,1.28,4.3,3.15
	c-4.26,2.5-8.56,4.93-12.77,7.51c-2.68,1.64-5.21,3.51-8.08,4.83C259.99,427.03,260.01,418.69,260.02,410.34z"/>
<path class="st15" d="M238.18,346.17c0.1,0.01,0.19,0.03,0.29,0.05c0,3.95,0,7.91,0.01,11.86c0,1.5-0.2,2.86-1.51,3.91
	c-0.69,0.55,0.15,1.23,0.47,1.42c1.12,0.66,1.06,1.63,1.04,2.67c-0.02,1.73-0.02,3.47-0.03,5.2c-2.32-0.8-4.01-2.62-6.17-3.73
	c-3.12-1.61-6.14-3.44-9.15-5.26c-1.92-1.16-3.67-2.58-5.98-3.74c2.11-1.24,3.99-2.32,5.86-3.43c4.58-2.74,9.14-5.5,13.72-8.23
	C237.2,346.61,237.7,346.41,238.18,346.17z"/>
<path class="st16" d="M217.63,384.04c0,0.5,0.3,0.83,0.68,1.04c4.32,2.33,8.32,5.2,12.63,7.55c2.17,1.18,4.44,2.23,6.37,3.84
	c0.67,0.56,0.86,0.93,0.03,1.41c-1.89,1.1-3.8,2.17-5.67,3.31c-2.54,1.54-5.23,2.82-7.62,4.64c-1.48,1.12-3.25,1.86-4.88,2.78
	c-0.55,0.31-1.26,0.42-1.54,1.11c-0.08,0.14-0.17,0.14-0.26,0.01c-0.05-0.63-0.1-1.26-0.15-1.89c0-7.4-0.02-14.81,0-22.22
	C217.23,385.1,216.94,384.42,217.63,384.04z"/>
<path class="st17" d="M203.16,386.63c-3.75-2.16-7.25-4.17-10.88-6.26c3.17-2.6,6.72-4.34,10.11-6.33c0.96-0.56,0.76,0.37,0.76,0.82
	C203.17,378.66,203.16,382.46,203.16,386.63z"/>
<path class="st18" d="M208.4,401.65c-2.34-1.38-4.48-2.7-6.69-3.89c-0.95-0.51-0.49-0.81-0.05-1.26c0.88-0.9,2.05-1.34,3.1-1.97
	c1.14-0.68,2.31-1.31,3.64-2.06C208.4,395.57,208.4,398.46,208.4,401.65z"/>
<path class="st19" d="M204.53,354.54c0,3.19,0,6.1,0,9.08c-2.63-0.89-4.51-2.97-6.93-4.15c-0.71-0.35-0.32-0.85,0.11-1.1
	C199.88,357.12,202.08,355.91,204.53,354.54z"/>
<path class="st20" d="M197.79,345.65c-2.31,1.34-4.3,2.49-6.46,3.74c0-2.57,0-4.95,0-7.48C193.69,342.7,195.19,344.78,197.79,345.65
	z"/>
<path class="st21" d="M187.54,367.91c-2.38,1.09-4.03,2.87-6.34,3.88c0-2.51,0-4.89,0-7.51
	C183.31,365.48,185.26,366.6,187.54,367.91z"/>
<path class="st22" d="M217.37,409.73c0.09-0.01,0.17-0.01,0.26-0.01c1.82,1.24,3.49,2.79,5.85,3.02c0.24,0.02,0.54,0.2,0.66,0.4
	c1.52,2.36,4.12,3.26,6.38,4.55c2.61,1.5,5.06,3.31,7.91,4.36c0,0.32,0.01,0.64,0.01,0.96c-3.65,1.78-7.01,4.05-10.58,5.95
	c-3.55,1.9-6.57,4.66-10.48,6.24C217.37,426.69,217.37,418.21,217.37,409.73z"/>
<path class="st23" d="M281.55,397.31c-0.03-0.09-0.03-0.18,0-0.27c1.8-1.43,3.87-2.44,5.81-3.66c3.37-2.12,7.1-3.65,10.23-6.2
	c1.36-1.11,3.12-1.74,4.69-2.59c0,8.14,0,16.27,0,24.51c-0.96,0.02-1.63-0.54-2.33-0.97c-5.86-3.55-11.64-7.22-17.65-10.53
	C282.07,397.47,281.8,397.41,281.55,397.31z"/>
<path class="st24" d="M281.16,371.28c-2.51-1.51-4.98-3.09-7.54-4.51c-4.65-2.58-9.15-5.41-13.61-8.29c0,0,0.05-0.14,0.05-0.14
	c1.9-1.04,3.84-2.01,5.7-3.12c4.93-2.95,9.83-5.96,14.75-8.93c0.16-0.1,0.42-0.03,0.64-0.04
	C281.14,354.59,281.15,362.93,281.16,371.28z"/>
<rect x="242.43" y="444.22" class="st25" width="263.57" height="62.14"/>
<text transform="matrix(1 0 0 1 242.4288 472.9752)"><tspan x="0" y="0" class="st3 st26 st27">o</tspan><tspan x="32.52" y="0" class="st22 st26 st27">w</tspan><tspan x="73.75" y="0" class="st6 st26 st27">e</tspan><tspan x="95.43" y="0" class="st16 st26 st27">r</tspan><tspan x="127.11" y="0" class="st6 st26 st27">p</tspan><tspan x="148.34" y="0" class="st12 st26 st27">u</tspan><tspan x="178.34" y="0" class="st15 st26 st27">f</tspan><tspan x="198.34" y="0" class="st7 st26 st27">f</tspan></text>
<rect x="385.48" y="479.18" class="st25" width="109.29" height="36.43"/>
<text transform="matrix(1 0 0 1 385.4778 489.0601)" class="st28 st29">Publicidad</text>
</svg>
