<?xml version="1.0" encoding="utf-8"?>
<!-- Generator: Adobe Illustrator 26.5.1, SVG Export Plug-In . SVG Version: 6.00 Build 0)  -->
<svg version="1.1" id="Capa_1" xmlns="http://www.w3.org/2000/svg" xmlns:xlink="http://www.w3.org/1999/xlink" x="0px" y="0px"
	 viewBox="0 0 595.28 841.89" style="enable-background:new 0 0 595.28 841.89;" xml:space="preserve">
<style type="text/css">
	.st0{fill:#ECEFE9;}
	.st1{fill:#B28686;}
	.st2{fill:#1B1B1B;}
	.st3{fill:#F5A31C;}
	.st4{fill:#8BC43F;}
	.st5{fill:#04A2DC;}
	.st6{fill:#CB2030;}
	.st7{fill:#B01F83;}
	.st8{fill:#16926C;}
	.st9{fill:#29B373;}
	.st10{fill:#0274B9;}
	.st11{fill:#6D4293;}
	.st12{fill:#E21A5E;}
	.st13{fill:#8F278D;}
	.st14{fill:#38B249;}
	.st15{fill:#CE1380;}
	.st16{fill:#AE2A25;}
	.st17{fill:#CB2131;}
	.st18{fill:#8EC646;}
	.st19{fill:#F4A41D;}
	.st20{fill:#AE2183;}
	.st21{fill:#B02184;}
	.st22{fill:#E84625;}
	.st23{fill:#00817F;}
	.st24{fill:#005C8C;}
	.st25{fill:none;}
	.st26{font-family:'FelixTitlingMT';}
	.st27{font-size:59.014px;}
	.st28{font-family:'Sylfaen';}
	.st29{font-size:20.6549px;}
</style>
<path class="st0" d="M525.89,384.94c1.22,1.82,3.22,3.22,2.43,5.8c-0.12,0.39-0.33-0.13-0.52-0.2
	C525.03,389.51,526.55,386.71,525.89,384.94z"/>
<path class="st0" d="M522.97,372.95c0.75,2.88,1.49,5.75,2.24,8.63c-0.06,0.02-0.12,0.05-0.18,0.07c-0.93-2.91-1.86-5.82-2.78-8.72
	C522.49,372.94,522.73,372.94,522.97,372.95z"/>
<polygon class="st0" points="59.67,316.08 59.87,316.43 59.67,316.79 59.42,316.43 "/>
<path class="st1" d="M464.35,830.18c0.04,0.02,0.08,0.04,0.12,0.06c-0.04,0.01-0.08,0.01-0.12,0.02
	C464.35,830.26,464.35,830.18,464.35,830.18z"/>
<path class="st1" d="M377.63,824c0.14-0.18,0.24-0.4,0.31-0.39c0.24,0.03,0.47,0.14,0.7,0.22c-0.09,0.12-0.17,0.33-0.26,0.33
	C378.15,824.16,377.91,824.07,377.63,824z"/>
<path class="st2" d="M466.75,524.35c0.07,0.09,0.14,0.17,0.2,0.25c-0.13,0.08-0.26,0.18-0.4,0.21c-0.05,0.01-0.13-0.14-0.2-0.21
	C466.48,524.52,466.61,524.44,466.75,524.35z"/>
<path class="st3" d="M146.4,420.49c0,24.81,0,49.62,0,74.88c-3.96-2.16-7.57-4.09-11.13-6.08c-6.84-3.83-13.34-8.21-20.38-11.72
	c-0.99-0.49-1.59-1.21-1.59-2.45c0.05-25.46,0.05-50.91,0.06-76.37c0-0.23,0.11-0.46,0.17-0.69c0.98,0.69,0.73,1.71,0.81,2.65
	c0.02,11.18,0,22.37,0.03,33.55c0,0.91-0.54,2.2,0.48,2.64c0.86,0.38,1.87-0.5,2.68-1.03c8.1-5.24,16.64-9.76,25.08-14.45
	c1.07-0.59,2.07-1.39,3.45-1.16C146.17,420.34,146.29,420.41,146.4,420.49z"/>
<path class="st4" d="M179.45,438.66c-4.71-1.94-8.78-4.91-13.13-7.43c-5.82-3.37-11.77-6.55-17.67-9.78
	c-0.71-0.39-1.5-0.64-2.25-0.96c0,0-0.17-0.04-0.17-0.04c-0.49-0.48-0.59-1.09-0.64-1.72c-0.11-11.94-0.32-23.89,0.1-35.82
	c0.38-1.3,1.26-1.06,2.13-0.56c6.69,3.93,13.79,7.23,20.25,11.52c3.03,2.01,6.34,3.57,9.47,5.41c0.85,0.5,1.8,0.88,2.3,1.79
	c0.19,0.4,0.25,0.82,0.31,1.24c0.18,11.21,0.05,22.41,0.07,33.62C180.24,436.91,180.07,437.85,179.45,438.66z"/>
<path class="st5" d="M244.77,325.02c0.74,0.51,0.56,1.29,0.56,1.97c0.01,11.58,0.01,23.17-0.01,34.75c0,0.39-0.12,0.78-0.18,1.17
	c-0.24,0.38-0.15,0.88-0.51,1.21c-1.33,1.14-2.98,1.73-4.5,2.57c-3.66,2.02-6.94,4.59-10.69,6.53c-5.26,2.72-10.56,5.41-15.51,8.65
	c-0.52,0.34-1.01,0.57-1.58,0.11c-0.17-0.23-0.28-0.47-0.35-0.73c-0.4-3.03-0.21-6.07-0.18-9.1c0.1-8.94-0.33-17.88,0.08-26.81
	c0.64-2.57,3.06-3.5,5.04-4.67c6.18-3.66,12.58-6.96,18.81-10.55C238.74,328.4,241.43,326.2,244.77,325.02z"/>
<path class="st6" d="M146.41,382.15c-0.03,10.54-0.07,21.07-0.11,31.61c-0.01,1.76-0.05,3.51-0.08,5.27
	c-1.08,0.74-1.93-0.03-2.74-0.48c-5.2-2.91-10.44-5.75-15.63-8.66c-1.16-0.65-2.29-1.34-3.08-2.42c-0.66-0.9-1.56-1.26-2.66-1.59
	c-2.8-0.85-5.24-2.42-7.65-4.02c-0.35-0.23-0.48-0.65-0.54-1.05c0.13-1.14,1.08-1.54,1.97-1.99c7.22-3.67,13.82-8.32,21.02-12.01
	c2.06-1.05,4.03-2.25,6.08-3.32c1.78-0.93,1.86-1.42,0.13-2.48c-4-2.47-8.14-4.74-12.33-6.88c-5.39-2.75-10.26-6.29-15.61-9.11
	c-0.78-0.41-1.58-0.99-1.03-2.09c2.7-1.55,5.43-3.04,8.08-4.66c7.87-4.81,15.87-9.41,24.06-13.69c0.11,0.12,0.22,0.24,0.33,0.36
	c0.59,1.12,0.46,2.34,0.46,3.53c0.01,10,0.02,20-0.01,29.99C147.09,379.72,147.34,381.05,146.41,382.15z"/>
<path class="st7" d="M146.31,344.58c-0.01-0.16-0.02-0.31-0.05-0.46c-1.27-1.91-0.63-4.04-0.68-6.07c-0.05-2.03-0.07-3.95-1.73-5.53
	c-0.84-0.8-0.9-1.79-0.06-2.8c1.4-1.7,1.8-3.7,1.77-5.84c-0.05-4.38-0.02-8.77-0.01-13.16c0-1.03-0.09-2.08,0.28-3.08
	c1.24-1.73,2.57-0.79,3.89-0.11c6.25,3.21,12.15,6.98,18.19,10.52c2.85,1.67,5.83,3.13,8.67,4.81c1.05,0.62,2.24,1.15,2.54,2.49
	c-0.17,1.04-1.15,1.29-1.88,1.77c-7.74,5.13-16.05,9.36-24.19,13.87c-1.46,0.81-2.58,2.02-4.06,2.76c-0.85,0.42-1.57,1.26-2.71,0.82
	L146.31,344.58z"/>
<path class="st8" d="M244.68,363.74c0.15-0.27,0.31-0.55,0.46-0.82c0.09,6.07,0.23,12.14,0.26,18.2c0.03,5.92-0.1,11.83-0.03,17.75
	c0.02,1.54-0.44,2.42-1.87,3.23c-10.1,5.67-19.92,11.79-30.27,17.04c-1.85-0.44-1.4-1.94-1.42-3.08
	c-0.09-5.83-0.04-11.66-0.04-17.49c0-4.07-0.01-8.14,0-12.22c0-1.11-0.07-2.24,0.33-3.32c0.83-1.28,1.92-0.73,2.83-0.23
	c6.66,3.67,13.5,7.04,19.81,11.28c2.33,1.57,4.93,2.7,7.33,4.16c1.45,0.89,2,0.7,1.98-1.05c-0.07-5.12-0.02-10.24-0.02-15.36
	c0-4.96-0.01-9.92,0.01-14.88C244.03,365.86,243.88,364.7,244.68,363.74z"/>
<path class="st9" d="M212.71,382.51c-0.04,11.72-0.07,23.44-0.11,35.16c0,0.57,0.04,1.12,0.62,1.47c-0.54,0.44-1.08,0.88-1.62,1.32
	c-5.56-3.64-11.59-6.52-17.33-9.87c-4.96-2.89-9.88-5.84-14.75-8.86c-0.01-0.27-0.02-0.55-0.03-0.82c0.78-1.46,2.31-2.02,3.66-2.77
	c8.16-4.49,16.01-9.49,24.26-13.84c1.66-0.88,3.14-2.11,5.11-2.38c0.07,0.05,0.14,0.11,0.2,0.18l0.13,0.2L212.71,382.51z"/>
<path class="st10" d="M244.77,325.02c-0.58,1.36-2.12,1.41-3.18,2.12c-7.9,5.24-16.47,9.43-24.66,14.2
	c-1.56,0.91-3.17,1.91-4.36,3.34c-0.58-0.05-0.83-0.45-1.01-0.91c-0.07-0.23-0.16-0.46-0.17-0.7c-0.2-11.41-0.11-22.83-0.04-34.24
	c0-0.48,0.12-0.95,0.33-1.39c0.28-0.5,0.69-0.65,1.23-0.43c7.11,3.57,13.92,7.61,20.69,11.74
	C237.23,320.96,241.03,322.93,244.77,325.02z"/>
<path class="st11" d="M212.9,307c-0.28,0.05-0.56,0.11-0.85,0.16c-1.7,1.45-3.73,2.43-5.69,3.47c-8.25,4.36-15.86,9.74-24.27,13.84
	c-1.2,0.59-2.39,1.54-3.24-0.4c-0.42-2.56-0.2-5.12-0.21-7.68c-0.03-8.49-0.01-16.98-0.01-25.46c0-1.04-0.09-2.09,0.31-3.09
	c1.87-0.47,3.06,0.91,4.26,1.73c5.22,3.59,10.99,6.26,16.44,9.48C204.08,301.67,208.48,304.35,212.9,307z"/>
<path class="st12" d="M140.03,344.55c-11.31,5.76-21.64,12.55-32.83,18.5c0-12.66,0-24.96,0-37.92
	C117.79,332.33,129.33,337.35,140.03,344.55z"/>
<path class="st13" d="M178.95,287.84c0.85,0.79,0.47,1.81,0.48,2.72c0.06,11.48,0.09,22.96,0.13,34.43
	c0.05,0.18,0.01,0.34-0.13,0.47c-0.19,0.08-0.34,0.03-0.46-0.13c-3.43-3-7.77-4.61-11.64-6.93c-6.09-3.65-12.12-7.4-18.45-10.67
	c-0.86-0.45-1.63-0.75-2.58-0.6c-0.18,0.12-0.32,0.09-0.44-0.08c8.1-5.28,16.59-9.94,25.15-14.48
	C173.74,291.12,175.87,288.76,178.95,287.84z"/>
<path class="st14" d="M179.52,401.74c3.4,0.91,6.25,2.89,9.08,4.71c5.29,3.42,11,6.13,16.38,9.37c2.29,1.38,5.35,1.89,6.62,4.64
	c-6.57,3.68-13.2,7.27-19.69,11.08c-4.13,2.42-8.04,5.18-12.46,7.12C179.47,426.35,179.5,414.05,179.52,401.74z"/>
<path class="st15" d="M145.84,307.06c0.15,0.02,0.3,0.04,0.44,0.08c0,5.83,0,11.67,0.02,17.5c0.01,2.22-0.31,4.22-2.32,5.77
	c-1.06,0.81,0.23,1.82,0.72,2.09c1.73,0.97,1.63,2.41,1.61,3.94c-0.04,2.56-0.03,5.11-0.04,7.67c-3.57-1.19-6.19-3.87-9.51-5.51
	c-4.82-2.37-9.46-5.07-14.1-7.76c-2.96-1.71-5.66-3.81-9.22-5.51c3.25-1.82,6.16-3.42,9.03-5.07c7.06-4.04,14.1-8.11,21.15-12.15
	C144.33,307.71,145.1,307.41,145.84,307.06z"/>
<path class="st16" d="M114.17,362.93c0,0.73,0.46,1.23,1.05,1.53c6.66,3.44,12.82,7.67,19.47,11.14c3.34,1.74,6.84,3.29,9.82,5.67
	c1.04,0.83,1.33,1.36,0.05,2.08c-2.91,1.63-5.86,3.21-8.74,4.88c-3.92,2.28-8.06,4.16-11.75,6.84c-2.28,1.66-5.01,2.74-7.53,4.11
	c-0.85,0.46-1.94,0.62-2.37,1.64c-0.13,0.2-0.26,0.2-0.4,0.01c-0.08-0.93-0.15-1.86-0.23-2.78c-0.01-10.92-0.03-21.85,0.01-32.78
	C113.54,364.49,113.1,363.5,114.17,362.93z"/>
<path class="st17" d="M91.86,366.76c-5.78-3.18-11.17-6.15-16.77-9.24c4.88-3.83,10.36-6.4,15.58-9.33
	c1.48-0.83,1.18,0.54,1.18,1.21C91.87,355,91.86,360.61,91.86,366.76z"/>
<path class="st18" d="M99.93,388.91c-3.61-2.03-6.9-3.99-10.31-5.74c-1.47-0.75-0.76-1.19-0.08-1.85c1.36-1.33,3.16-1.98,4.78-2.9
	c1.76-1.01,3.56-1.94,5.61-3.04C99.93,379.94,99.93,384.2,99.93,388.91z"/>
<path class="st19" d="M93.96,319.41c0,4.71,0,9,0,13.39c-4.05-1.31-6.96-4.38-10.68-6.12c-1.1-0.52-0.5-1.25,0.17-1.62
	C86.8,323.21,90.19,321.43,93.96,319.41z"/>
<path class="st20" d="M83.58,306.29c-3.56,1.98-6.63,3.68-9.95,5.52c0-3.79,0-7.31,0-11.03C77.25,301.94,79.57,305.01,83.58,306.29z
	"/>
<path class="st21" d="M67.78,339.13c-3.67,1.61-6.21,4.23-9.78,5.72c0-3.7,0-7.21,0-11.08C61.25,335.55,64.26,337.2,67.78,339.13z"
	/>
<path class="st22" d="M113.76,400.84c0.13-0.01,0.27-0.01,0.4-0.01c2.81,1.84,5.38,4.12,9.01,4.45c0.36,0.03,0.83,0.3,1.02,0.59
	c2.34,3.49,6.35,4.81,9.83,6.71c4.02,2.21,7.8,4.88,12.2,6.44c0,0.47,0.01,0.94,0.01,1.41c-5.62,2.62-10.81,5.97-16.32,8.78
	c-5.47,2.8-10.13,6.88-16.16,9.21C113.76,425.85,113.76,413.34,113.76,400.84z"/>
<path class="st23" d="M212.71,382.51c-0.04-0.13-0.04-0.26,0-0.4c2.78-2.11,5.97-3.6,8.96-5.4c5.2-3.13,10.94-5.38,15.77-9.15
	c2.1-1.64,4.81-2.57,7.24-3.83c0,12.01,0,24.01,0,36.16c-1.48,0.03-2.52-0.8-3.6-1.43c-9.03-5.24-17.95-10.66-27.2-15.54
	C213.51,382.74,213.1,382.65,212.71,382.51z"/>
<path class="st24" d="M212.1,344.1c-3.87-2.23-7.68-4.57-11.63-6.66c-7.17-3.8-14.1-7.98-20.99-12.23c0,0,0.07-0.21,0.07-0.21
	c2.93-1.53,5.92-2.97,8.79-4.61c7.6-4.35,15.15-8.79,22.74-13.17c0.25-0.14,0.65-0.04,0.98-0.05
	C212.07,319.48,212.08,331.79,212.1,344.1z"/>
<rect x="152.39" y="451.71" class="st25" width="406.32" height="91.68"/>
<text transform="matrix(1.0449 0 0 1 152.3936 494.139)"><tspan x="0" y="0" class="st3 st26 st27">o</tspan><tspan x="47.98" y="0" class="st22 st26 st27">w</tspan><tspan x="108.81" y="0" class="st6 st26 st27">e</tspan><tspan x="140.79" y="0" class="st16 st26 st27">r</tspan><tspan x="187.53" y="0" class="st6 st26 st27">p</tspan><tspan x="218.85" y="0" class="st12 st26 st27">u</tspan><tspan x="263.11" y="0" class="st15 st26 st27">f</tspan><tspan x="292.62" y="0" class="st7 st26 st27">f</tspan></text>
<rect x="372.92" y="503.29" class="st25" width="168.47" height="53.74"/>
<text transform="matrix(1.0449 0 0 1 372.917 517.8715)" class="st28 st29">Publicidad</text>
</svg>
